<svg  viewBox="0 0 565 295" fill="none" xmlns="http://www.w3.org/2000/svg">
<rect x="44.3726" y="10" width="473.032" height="275" rx="24" stroke="url(#paint0_linear)" stroke-width="20"/>
<path d="M84.8574 45.2225L245.442 44.1874" stroke="#DE1A61" stroke-width="15"/>
<path d="M84.8573 78.1631L323.871 78.694" stroke="#675C5C" stroke-width="15"/>
<rect x="344.8" y="27.9474" width="119.23" height="139.737" rx="9" fill="#7DCF76" fill-opacity="0.54"/>
<rect x="84.8574" y="100.404" width="151.454" height="67.2807" rx="11" fill="#EB6FFF" fill-opacity="0.5"/>
<path d="M404.606 207.035C404.606 205.598 404.099 204.387 403.083 203.403C402.083 202.418 400.388 201.528 397.997 200.731C394.669 199.715 392.239 198.395 390.708 196.77C389.192 195.129 388.435 193.051 388.435 190.535C388.435 187.973 389.177 185.871 390.661 184.231C392.161 182.59 394.216 181.614 396.825 181.301V176.168H400.317V181.325C402.942 181.684 404.981 182.785 406.435 184.629C407.903 186.473 408.638 188.996 408.638 192.2H404.325C404.325 189.996 403.802 188.246 402.755 186.95C401.708 185.653 400.294 185.004 398.513 185.004C396.653 185.004 395.231 185.489 394.247 186.457C393.263 187.41 392.771 188.746 392.771 190.465C392.771 192.059 393.286 193.332 394.317 194.285C395.364 195.223 397.075 196.082 399.45 196.864C401.841 197.629 403.7 198.481 405.028 199.418C406.372 200.34 407.356 201.418 407.981 202.653C408.622 203.887 408.942 205.332 408.942 206.989C408.942 209.629 408.146 211.754 406.552 213.364C404.974 214.973 402.755 215.926 399.896 216.223V220.7H396.427V216.223C393.521 215.957 391.239 214.926 389.583 213.129C387.942 211.317 387.122 208.864 387.122 205.77H391.458C391.458 207.942 392.028 209.614 393.169 210.785C394.31 211.957 395.927 212.543 398.021 212.543C400.067 212.543 401.677 212.051 402.849 211.067C404.021 210.082 404.606 208.739 404.606 207.035Z" fill="#5F5656"/>
<path d="M504.141 77.4561H512C538.51 77.4561 560 98.9465 560 125.456V153.711V211.083L556.127 210.617C555.165 210.501 554.231 210.215 553.369 209.772C548.206 207.118 542.086 207.091 536.9 209.698L536.338 209.981C533.927 211.193 531.11 211.312 528.606 210.306L528.051 210.084C522.751 207.955 516.807 208.108 511.623 210.506L511.374 210.621C508.294 212.046 504.721 212.016 501.656 210.539C496.712 208.157 491.03 207.757 485.798 209.437L481.915 210.685C479.363 211.504 476.59 211.264 474.217 210.017C468.939 207.242 462.698 206.97 457.198 209.274L456.141 209.717V125.456C456.141 98.9465 477.631 77.4561 504.141 77.4561Z" fill="#F3599A" stroke="#625C5C" stroke-width="10"/>
<ellipse cx="480.68" cy="122.14" rx="8.05608" ry="7.24561" fill="white"/>
<mask id="path-9-inside-1" fill="white">
<path d="M102.562 192.716C101.734 191.516 102.141 189.855 103.482 189.281C109.619 186.659 116.559 185.736 123.357 186.672C131.088 187.736 138.141 191.136 143.279 196.276C148.416 201.416 151.309 207.967 151.449 214.778C151.59 221.59 148.969 228.226 144.047 233.523C139.125 238.82 132.216 242.439 124.534 243.744C116.852 245.049 108.887 243.957 102.038 240.659C95.1891 237.362 89.8935 232.07 87.0812 225.712C84.601 220.105 84.1919 213.986 85.8717 208.199C86.256 206.876 87.6737 206.197 88.9942 206.591V206.591C90.4842 207.036 91.2582 208.66 90.8835 210.169C89.7405 214.773 90.1561 219.59 92.1176 224.024C94.4741 229.351 98.9114 233.786 104.65 236.549C110.389 239.312 117.063 240.227 123.5 239.134C129.938 238.04 135.726 235.008 139.851 230.57C143.975 226.131 146.171 220.57 146.053 214.862C145.935 209.155 143.511 203.666 139.207 199.359C134.902 195.052 128.992 192.203 122.514 191.311C116.766 190.52 110.897 191.315 105.721 193.558C104.595 194.046 103.259 193.725 102.562 192.716V192.716Z"/>
</mask>
<path d="M102.562 192.716C101.734 191.516 102.141 189.855 103.482 189.281C109.619 186.659 116.559 185.736 123.357 186.672C131.088 187.736 138.141 191.136 143.279 196.276C148.416 201.416 151.309 207.967 151.449 214.778C151.59 221.59 148.969 228.226 144.047 233.523C139.125 238.82 132.216 242.439 124.534 243.744C116.852 245.049 108.887 243.957 102.038 240.659C95.1891 237.362 89.8935 232.07 87.0812 225.712C84.601 220.105 84.1919 213.986 85.8717 208.199C86.256 206.876 87.6737 206.197 88.9942 206.591V206.591C90.4842 207.036 91.2582 208.66 90.8835 210.169C89.7405 214.773 90.1561 219.59 92.1176 224.024C94.4741 229.351 98.9114 233.786 104.65 236.549C110.389 239.312 117.063 240.227 123.5 239.134C129.938 238.04 135.726 235.008 139.851 230.57C143.975 226.131 146.171 220.57 146.053 214.862C145.935 209.155 143.511 203.666 139.207 199.359C134.902 195.052 128.992 192.203 122.514 191.311C116.766 190.52 110.897 191.315 105.721 193.558C104.595 194.046 103.259 193.725 102.562 192.716V192.716Z" stroke="#B572D5" stroke-width="40" mask="url(#path-9-inside-1)"/>
<ellipse cx="529.553" cy="121.623" rx="8.59316" ry="7.76316" fill="white"/>
<mask id="path-11-inside-2" fill="white">
<path d="M485.21 139.219C483.598 139.219 482.27 140.533 482.494 142.129C483.17 146.958 485.515 151.474 489.212 154.956C493.644 159.129 499.655 161.474 505.922 161.474C512.19 161.474 518.2 159.129 522.632 154.956C526.329 151.474 528.674 146.958 529.351 142.129C529.574 140.533 528.246 139.219 526.634 139.219V139.219C525.022 139.219 523.742 140.537 523.446 142.122C522.817 145.488 521.105 148.618 518.504 151.068C515.167 154.21 510.641 155.975 505.922 155.975C501.203 155.975 496.678 154.21 493.341 151.068C490.74 148.618 489.027 145.488 488.398 142.122C488.102 140.537 486.822 139.219 485.21 139.219V139.219Z"/>
</mask>
<path d="M485.21 139.219C483.598 139.219 482.27 140.533 482.494 142.129C483.17 146.958 485.515 151.474 489.212 154.956C493.644 159.129 499.655 161.474 505.922 161.474C512.19 161.474 518.2 159.129 522.632 154.956C526.329 151.474 528.674 146.958 529.351 142.129C529.574 140.533 528.246 139.219 526.634 139.219V139.219C525.022 139.219 523.742 140.537 523.446 142.122C522.817 145.488 521.105 148.618 518.504 151.068C515.167 154.21 510.641 155.975 505.922 155.975C501.203 155.975 496.678 154.21 493.341 151.068C490.74 148.618 489.027 145.488 488.398 142.122C488.102 140.537 486.822 139.219 485.21 139.219V139.219Z" fill="#EB0767" stroke="#EB0767" stroke-width="10" mask="url(#path-11-inside-2)"/>
<mask id="path-12-inside-3" fill="white">
<path d="M12.3587 220.635C10.0687 219.11 9.42274 216.001 11.1586 213.866C17.9981 205.455 27.4275 199.491 38.0312 196.967C50.2499 194.059 63.1113 195.938 74.0021 202.222C84.8928 208.506 92.9959 218.723 96.6648 230.798C100.334 242.873 99.2934 255.899 93.7551 267.23C88.2168 278.562 78.596 287.348 66.8476 291.803C55.0991 296.259 42.1044 296.05 30.5037 291.219C18.903 286.387 9.56664 277.296 4.39165 265.793C-0.0945084 255.82 -1.16164 244.683 1.27304 234.11C1.89415 231.412 4.76989 230.015 7.38835 230.912L8.52175 231.301C11.1278 232.194 12.4856 235.025 11.9444 237.726C10.3706 245.58 11.2707 253.779 14.5886 261.155C18.5915 270.053 25.8131 277.085 34.7862 280.822C43.7593 284.558 53.8106 284.72 62.898 281.274C71.9854 277.827 79.427 271.031 83.7109 262.267C87.9948 253.502 88.7995 243.426 85.9616 234.086C83.1236 224.747 76.8559 216.843 68.432 211.983C60.0081 207.123 50.0598 205.669 40.6087 207.918C32.7912 209.779 25.7988 214.057 20.5797 220.088C18.7662 222.183 15.6727 222.842 13.3662 221.306L12.3587 220.635Z"/>
</mask>
<path d="M12.3587 220.635C10.0687 219.11 9.42274 216.001 11.1586 213.866C17.9981 205.455 27.4275 199.491 38.0312 196.967C50.2499 194.059 63.1113 195.938 74.0021 202.222C84.8928 208.506 92.9959 218.723 96.6648 230.798C100.334 242.873 99.2934 255.899 93.7551 267.23C88.2168 278.562 78.596 287.348 66.8476 291.803C55.0991 296.259 42.1044 296.05 30.5037 291.219C18.903 286.387 9.56664 277.296 4.39165 265.793C-0.0945084 255.82 -1.16164 244.683 1.27304 234.11C1.89415 231.412 4.76989 230.015 7.38835 230.912L8.52175 231.301C11.1278 232.194 12.4856 235.025 11.9444 237.726C10.3706 245.58 11.2707 253.779 14.5886 261.155C18.5915 270.053 25.8131 277.085 34.7862 280.822C43.7593 284.558 53.8106 284.72 62.898 281.274C71.9854 277.827 79.427 271.031 83.7109 262.267C87.9948 253.502 88.7995 243.426 85.9616 234.086C83.1236 224.747 76.8559 216.843 68.432 211.983C60.0081 207.123 50.0598 205.669 40.6087 207.918C32.7912 209.779 25.7988 214.057 20.5797 220.088C18.7662 222.183 15.6727 222.842 13.3662 221.306L12.3587 220.635Z" fill="#9319A7" stroke="#383838" stroke-width="40" mask="url(#path-12-inside-3)"/>
<ellipse cx="49.4108" cy="244.724" rx="41.0763" ry="40.812" fill="#E88DF6"/>
<path d="M32.1465 271.932V218.108H49.8569C55.7356 218.108 60.1508 219.315 63.1026 221.731C66.0791 224.146 67.5674 227.719 67.5674 232.451C67.5674 234.965 66.848 237.195 65.4094 239.142C63.9707 241.065 62.0112 242.556 59.5307 243.615C62.4576 244.429 64.7645 245.981 66.4512 248.273C68.1627 250.541 69.0184 253.251 69.0184 256.406C69.0184 261.236 67.4433 265.032 64.2932 267.792C61.143 270.552 56.6906 271.932 50.9359 271.932H32.1465ZM39.2902 246.758V266.128H51.0848C54.4086 266.128 57.0254 265.278 58.9354 263.578C60.8701 261.853 61.8375 259.487 61.8375 256.48C61.8375 249.998 58.2905 246.758 51.1964 246.758H39.2902ZM39.2902 241.065H50.0802C53.2055 241.065 55.6984 240.288 57.5587 238.736C59.4439 237.183 60.3865 235.076 60.3865 232.414C60.3865 229.457 59.5183 227.313 57.782 225.982C56.0457 224.626 53.404 223.949 49.8569 223.949H39.2902V241.065Z" fill="white"/>
<defs>
<linearGradient id="paint0_linear" x1="34.3726" y1="31.5702" x2="520.398" y2="273.863" gradientUnits="userSpaceOnUse">
<stop/>
<stop offset="0.484375" stop-color="#248B1B"/>
</linearGradient>
</defs>
</svg>
