<?xml version="1.0" encoding="UTF-8"?>
<svg width="60px" height="60px" viewBox="0 0 60 60" version="1.1" xmlns="http://www.w3.org/2000/svg" xmlns:xlink="http://www.w3.org/1999/xlink">
    <!-- Generator: Sketch 55.1 (78136) - https://sketchapp.com -->
    <title>positive-negative-chart</title>
    <desc>Created with Sketch.</desc>
    <defs>
        <linearGradient x1="100%" y1="100%" x2="7.45618666%" y2="7.45618666%" id="linearGradient-1">
            <stop stop-color="#52CD7F" offset="0%"></stop>
            <stop stop-color="#1D1B50" offset="100%"></stop>
        </linearGradient>
        <linearGradient x1="82%" y1="100%" x2="22.7719595%" y2="7.45618666%" id="linearGradient-2">
            <stop stop-color="#52CD7F" offset="0%"></stop>
            <stop stop-color="#1D1B50" offset="100%"></stop>
        </linearGradient>
        <linearGradient x1="100%" y1="78.125%" x2="7.45618666%" y2="26.069105%" id="linearGradient-3">
            <stop stop-color="#52CD7F" offset="0%"></stop>
            <stop stop-color="#1D1B50" offset="100%"></stop>
        </linearGradient>
        <linearGradient x1="66.3265306%" y1="100%" x2="36.1081426%" y2="7.45618666%" id="linearGradient-4">
            <stop stop-color="#52CD7F" offset="0%"></stop>
            <stop stop-color="#1D1B50" offset="100%"></stop>
        </linearGradient>
    </defs>
    <g id="Desktop" stroke="none" stroke-width="1" fill="none" fill-rule="evenodd">
        <g id="Home" transform="translate(-150.000000, -1517.000000)" fill-rule="nonzero">
            <g id="Content-Section" transform="translate(0.000000, 1076.000000)">
                <g id="Group-3" transform="translate(150.000000, 440.000000)">
                    <g id="positive-negative-chart" transform="translate(0.000000, 1.000000)">
                        <path d="M58.125,33.75 L1.875,33.75 C0.839466094,33.75 0,32.9105339 0,31.875 C0,30.8394661 0.839466094,30 1.875,30 L58.125,30 C59.1605339,30 60,30.8394661 60,31.875 C60,32.9105339 59.1605339,33.75 58.125,33.75 Z" id="Path" fill="#000000"></path>
                        <path d="M58.125,52.5 L46.875,52.5 C45.8394661,52.5 45,51.6605339 45,50.625 L45,39.375 C45,38.3394661 45.8394661,37.5 46.875,37.5 C47.9105339,37.5 48.75,38.3394661 48.75,39.375 L48.75,48.75 L56.25,48.75 L56.25,39.375 C56.25,38.3394661 57.0894661,37.5 58.125,37.5 C59.1605339,37.5 60,38.3394661 60,39.375 L60,50.625 C60,51.6605339 59.1605339,52.5 58.125,52.5 Z" id="Path" fill="url(#linearGradient-1)"></path>
                        <path d="M58.125,26.25 C57.0894661,26.25 56.25,25.4105339 56.25,24.375 L56.25,11.25 L48.75,11.25 L48.75,24.375 C48.75,25.4105339 47.9105339,26.25 46.875,26.25 C45.8394661,26.25 45,25.4105339 45,24.375 L45,9.375 C45,8.33946609 45.8394661,7.5 46.875,7.5 L58.125,7.5 C59.1605339,7.5 60,8.33946609 60,9.375 L60,24.375 C60,25.4105339 59.1605339,26.25 58.125,26.25 Z" id="Path" fill="url(#linearGradient-2)"></path>
                        <path d="M35.625,60 L24.375,60 C23.3394661,60 22.5,59.1605339 22.5,58.125 L22.5,39.375 C22.5,38.3394661 23.3394661,37.5 24.375,37.5 C25.4105339,37.5 26.25,38.3394661 26.25,39.375 L26.25,56.25 L33.75,56.25 L33.75,39.375 C33.75,38.3394661 34.5894661,37.5 35.625,37.5 C36.6605339,37.5 37.5,38.3394661 37.5,39.375 L37.5,58.125 C37.5,59.1605339 36.6605339,60 35.625,60 Z" id="Path" fill="#222222"></path>
                        <path d="M35.625,26.25 C34.5894661,26.25 33.75,25.4105339 33.75,24.375 L33.75,18.75 L26.25,18.75 L26.25,24.375 C26.25,25.4105339 25.4105339,26.25 24.375,26.25 C23.3394661,26.25 22.5,25.4105339 22.5,24.375 L22.5,16.875 C22.5,15.8394661 23.3394661,15 24.375,15 L35.625,15 C36.6605339,15 37.5,15.8394661 37.5,16.875 L37.5,24.375 C37.5,25.4105339 36.6605339,26.25 35.625,26.25 Z" id="Path" fill="#222222"></path>
                        <path d="M13.125,48.75 L1.875,48.75 C0.839466094,48.75 0,47.9105339 0,46.875 L0,39.375 C0,38.3394661 0.839466094,37.5 1.875,37.5 C2.91053391,37.5 3.75,38.3394661 3.75,39.375 L3.75,45 L11.25,45 L11.25,39.375 C11.25,38.3394661 12.0894661,37.5 13.125,37.5 C14.1605339,37.5 15,38.3394661 15,39.375 L15,46.875 C15,47.9105339 14.1605339,48.75 13.125,48.75 Z" id="Path" fill="url(#linearGradient-3)"></path>
                        <path d="M13.125,26.25 C12.0894661,26.25 11.25,25.4105339 11.25,24.375 L11.25,3.75 L3.75,3.75 L3.75,24.375 C3.75,25.4105339 2.91053391,26.25 1.875,26.25 C0.839466094,26.25 0,25.4105339 0,24.375 L0,1.875 C0,0.839466094 0.839466094,0 1.875,0 L13.125,0 C14.1605339,0 15,0.839466094 15,1.875 L15,24.375 C15,25.4105339 14.1605339,26.25 13.125,26.25 Z" id="Path" fill="url(#linearGradient-4)"></path>
                        <path d="M35.625,33.75 L24.375,33.75 C23.3394661,33.75 22.5,32.9105339 22.5,31.875 C22.5,30.8394661 23.3394661,30 24.375,30 L35.625,30 C36.6605339,30 37.5,30.8394661 37.5,31.875 C37.5,32.9105339 36.6605339,33.75 35.625,33.75 Z" id="Path" fill="#222222"></path>
                    </g>
                </g>
            </g>
        </g>
    </g>
</svg>