<svg xmlns="http://www.w3.org/2000/svg" version="1.1" xmlns:xlink="http://www.w3.org/1999/xlink" xmlns:svgjs="http://svgjs.dev/svgjs" width="1000" height="487" viewBox="0 0 1000 487"><g transform="matrix(1,0,0,1,-0.6060606060606233,-0.3562795911876435)"><svg viewBox="0 0 396 193" data-background-color="#dedede" preserveAspectRatio="xMidYMid meet" height="487" width="1000" xmlns="http://www.w3.org/2000/svg" xmlns:xlink="http://www.w3.org/1999/xlink"><g id="tight-bounds" transform="matrix(1,0,0,1,0.2400000000000091,0.14119499199017582)"><svg viewBox="0 0 395.52 192.71761001601965" height="192.71761001601965" width="395.52"><g><svg viewBox="0 0 395.52 192.71761001601965" height="192.71761001601965" width="395.52"><g transform="matrix(1,0,0,1,0,142.20207317391439)"><svg viewBox="0 0 395.52 50.51553684210527" height="50.51553684210527" width="395.52"><g id="textblocktransform"><svg viewBox="0 0 395.52 50.51553684210527" height="50.51553684210527" width="395.52" id="textblock"><g><svg viewBox="0 0 395.52 50.51553684210527" height="50.51553684210527" width="395.52"><g transform="matrix(1,0,0,1,0,0)"><svg width="395.52" viewBox="3.3 -35.7 284.97999999999996 36.400000000000006" height="50.51553684210527" data-palette-color="#ffffff"><path d="M19.7-18.9Q25.4-16.7 25.4-10L25.4-10Q25.4-5.3 22.73-2.65 20.05 0 15.4 0L15.4 0 3.3 0 3.3-35 13.55-35Q18.05-35 20.4-32.85 22.75-30.7 22.75-26.45L22.75-26.45Q22.75-23.9 21.98-21.95 21.2-20 19.7-18.9L19.7-18.9ZM8.55-30.2L8.55-20.7 12.75-20.7Q15.25-20.7 16.32-21.78 17.4-22.85 17.4-25.5L17.4-25.5Q17.4-28.1 16.32-29.15 15.25-30.2 12.75-30.2L12.75-30.2 8.55-30.2ZM14.7-4.8Q17.15-4.8 18.5-6.15 19.85-7.5 19.85-10.3L19.85-10.3Q19.85-13.35 18.5-14.65 17.15-15.95 14.7-15.95L14.7-15.95 8.55-15.95 8.55-4.8 14.7-4.8ZM43.6 0.7Q39.3 0.7 35.92-1.55 32.55-3.8 30.65-7.93 28.75-12.05 28.75-17.5L28.75-17.5Q28.75-22.95 30.65-27.08 32.55-31.2 35.92-33.45 39.3-35.7 43.6-35.7L43.6-35.7Q47.9-35.7 51.25-33.45 54.6-31.2 56.5-27.08 58.4-22.95 58.4-17.5L58.4-17.5Q58.4-12.05 56.5-7.93 54.6-3.8 51.25-1.55 47.9 0.7 43.6 0.7L43.6 0.7ZM43.6-4.55Q48.05-4.55 50.45-8.15 52.85-11.75 52.85-17.5L52.85-17.5Q52.85-23.25 50.45-26.85 48.05-30.45 43.6-30.45L43.6-30.45Q39.15-30.45 36.75-26.85 34.35-23.25 34.35-17.5L34.35-17.5Q34.35-11.75 36.75-8.15 39.15-4.55 43.6-4.55L43.6-4.55ZM76.25 0.7Q71.94 0.7 68.57-1.55 65.19-3.8 63.29-7.93 61.39-12.05 61.39-17.5L61.39-17.5Q61.39-22.95 63.29-27.08 65.19-31.2 68.57-33.45 71.94-35.7 76.25-35.7L76.25-35.7Q80.55-35.7 83.89-33.45 87.25-31.2 89.14-27.08 91.05-22.95 91.05-17.5L91.05-17.5Q91.05-12.05 89.14-7.93 87.25-3.8 83.89-1.55 80.55 0.7 76.25 0.7L76.25 0.7ZM76.25-4.55Q80.69-4.55 83.09-8.15 85.5-11.75 85.5-17.5L85.5-17.5Q85.5-23.25 83.09-26.85 80.69-30.45 76.25-30.45L76.25-30.45Q71.8-30.45 69.39-26.85 66.99-23.25 66.99-17.5L66.99-17.5Q66.99-11.75 69.39-8.15 71.8-4.55 76.25-4.55L76.25-4.55ZM96.09 0L96.09-35 101.29-35 101.29 0 96.09 0ZM112.49 0L101.54-18.55 112.49-35 118.49-35 107.39-18.55 118.49 0 112.49 0ZM122.44 0L122.44-35 127.64-35 127.64 0 122.44 0ZM138.84 0L127.89-18.55 138.84-35 144.84-35 133.74-18.55 144.84 0 138.84 0ZM148.54 0L148.54-35 167.69-35 167.69-30.2 153.79-30.2 153.79-20.7 164.64-20.7 164.64-15.9 153.79-15.9 153.79-4.8 168.09-4.8 168.09 0 148.54 0ZM172.84 0L172.84-35 191.99-35 191.99-30.2 178.09-30.2 178.09-20.7 188.94-20.7 188.94-15.9 178.09-15.9 178.09-4.8 192.38-4.8 192.38 0 172.84 0ZM197.23 0L197.23-35 206.73-35Q212.23-35 215.33-32.08 218.43-29.15 218.43-23.55L218.43-23.55Q218.43-17.9 215.33-14.98 212.23-12.05 206.73-12.05L206.73-12.05 202.48-12.05 202.48 0 197.23 0ZM202.48-16.75L206.28-16.75Q209.68-16.75 211.33-18.43 212.98-20.1 212.98-23.55L212.98-23.55Q212.98-30.35 206.28-30.35L206.28-30.35 202.48-30.35 202.48-16.75ZM222.78 0L222.78-35 228.03-35 228.03 0 222.78 0ZM234.73 0L234.73-35 240.38-35 253.23-11.05 253.23-35 258.43-35 258.43 0 253.73 0 239.98-25.4 239.98 0 234.73 0ZM279.28 0.7Q274.43 0.7 270.8-1.6 267.18-3.9 265.2-8.03 263.23-12.15 263.23-17.5L263.23-17.5Q263.23-22.95 265.3-27.08 267.38-31.2 271.05-33.45 274.73-35.7 279.33-35.7L279.33-35.7Q283.68-35.7 287.28-34.15L287.28-34.15 286.68-29.05Q284.98-29.85 283.4-30.25 281.83-30.65 279.93-30.65L279.93-30.65Q274.78-30.65 271.9-27.03 269.03-23.4 269.03-17.5L269.03-17.5Q269.03-11.45 271.75-7.9 274.48-4.35 279.68-4.35L279.68-4.35Q281.53-4.35 283.03-4.9L283.03-4.9 283.03-12.75 278.78-12.75 278.78-17.55 288.28-17.55 288.28-1.7Q286.58-0.6 284.23 0.05 281.88 0.7 279.28 0.7L279.28 0.7Z" opacity="1" transform="matrix(1,0,0,1,0,0)" fill="#ffffff" class="undefined-text-0" data-fill-palette-color="primary" id="text-0"></path></svg></g></svg></g></svg></g></svg></g><g transform="matrix(1,0,0,1,138.58446928857964,0)"><svg viewBox="0 0 118.3510614228407 118.3510614228407" height="118.3510614228407" width="118.3510614228407"><g><svg></svg></g><g id="icon-0"><svg viewBox="0 0 118.3510614228407 118.3510614228407" height="118.3510614228407" width="118.3510614228407"><g><path d="M0 59.176c0-32.682 26.494-59.176 59.176-59.176 32.682 0 59.176 26.494 59.175 59.176 0 32.682-26.494 59.176-59.175 59.175-32.682 0-59.176-26.494-59.176-59.175zM59.176 113.796c30.166 0 54.62-24.454 54.62-54.62 0-30.166-24.454-54.62-54.62-54.62-30.166 0-54.62 24.454-54.62 54.62 0 30.166 24.454 54.62 54.62 54.62z" data-fill-palette-color="accent" fill="#ffffff" stroke="transparent"></path><ellipse rx="58.583775404306145" ry="58.583775404306145" cx="59.17553071142035" cy="59.17553071142035" fill="#ffffff" stroke="transparent" stroke-width="0" fill-opacity="1" data-fill-palette-color="accent"></ellipse></g><g transform="matrix(1,0,0,1,29.195320794737476,29.195320794737476)"><svg viewBox="0 0 59.96041983336575 59.96041983336575" height="59.96041983336575" width="59.96041983336575"><g><svg xmlns="http://www.w3.org/2000/svg" xmlns:xlink="http://www.w3.org/1999/xlink" version="1.1" x="0" y="0" viewBox="1 1 62 62" style="enable-background:new 0 0 64 64;" xml:space="preserve" height="59.96041983336575" width="59.96041983336575" class="icon-g$-0" data-fill-palette-color="quaternary" id="g$-0"><g fill="#dedede" data-fill-palette-color="quaternary"><path d="M17 11c0.552 0 1 0.448 1 1h2c0-1.302-0.839-2.402-2-2.816V8h-2v1.184c-1.161 0.414-2 1.514-2 2.816 0 1.654 1.346 3 3 3 0.552 0 1 0.448 1 1s-0.448 1-1 1-1-0.448-1-1h-2c0 1.302 0.839 2.402 2 2.816V20h2v-1.184c1.161-0.414 2-1.514 2-2.816 0-1.654-1.346-3-3-3-0.552 0-1-0.448-1-1S16.448 11 17 11z" fill="#dedede" data-fill-palette-color="quaternary"></path><path d="M17 7c3.859 0 7 3.141 7 7 0 1.562-0.51 3.045-1.476 4.287l1.58 1.227C25.345 17.918 26 16.012 26 14c0-4.963-4.037-9-9-9-2.012 0-3.918 0.655-5.514 1.896l1.227 1.58C13.955 7.51 15.438 7 17 7z" fill="#dedede" data-fill-palette-color="quaternary"></path><path d="M17 23c2.012 0 3.918-0.655 5.514-1.896l-1.227-1.58C20.045 20.49 18.562 21 17 21c-3.859 0-7-3.141-7-7 0-1.562 0.51-3.045 1.476-4.287l-1.58-1.227C8.655 10.082 8 11.988 8 14 8 18.963 12.037 23 17 23z" fill="#dedede" data-fill-palette-color="quaternary"></path><path d="M24.5 41c-1.93 0-3.5 1.57-3.5 3.5v5c0 1.93 1.57 3.5 3.5 3.5s3.5-1.57 3.5-3.5v-5C28 42.57 26.43 41 24.5 41zM26 49.5c0 0.827-0.673 1.5-1.5 1.5S23 50.327 23 49.5v-5c0-0.827 0.673-1.5 1.5-1.5s1.5 0.673 1.5 1.5V49.5z" fill="#dedede" data-fill-palette-color="quaternary"></path><rect x="7" y="36" width="2" height="2" fill="#dedede" data-fill-palette-color="quaternary"></rect><rect x="12" y="36" width="2" height="2" fill="#dedede" data-fill-palette-color="quaternary"></rect><rect x="17" y="36" width="2" height="2" fill="#dedede" data-fill-palette-color="quaternary"></rect><rect x="22" y="36" width="2" height="2" fill="#dedede" data-fill-palette-color="quaternary"></rect><rect x="7" y="41" width="2" height="2" fill="#dedede" data-fill-palette-color="quaternary"></rect><rect x="12" y="41" width="2" height="2" fill="#dedede" data-fill-palette-color="quaternary"></rect><rect x="17" y="41" width="2" height="2" fill="#dedede" data-fill-palette-color="quaternary"></rect><rect x="7" y="46" width="2" height="2" fill="#dedede" data-fill-palette-color="quaternary"></rect><rect x="12" y="46" width="2" height="2" fill="#dedede" data-fill-palette-color="quaternary"></rect><rect x="17" y="46" width="2" height="2" fill="#dedede" data-fill-palette-color="quaternary"></rect><rect x="7" y="51" width="2" height="2" fill="#dedede" data-fill-palette-color="quaternary"></rect><rect x="12" y="51" width="2" height="2" fill="#dedede" data-fill-palette-color="quaternary"></rect><rect x="17" y="51" width="2" height="2" fill="#dedede" data-fill-palette-color="quaternary"></rect><rect x="44.028" y="13.5" transform="matrix(0.4678 -0.8838 0.8838 0.4678 14.5302 53.1304)" width="14.709" height="2" fill="#dedede" data-fill-palette-color="quaternary"></rect><rect x="54" y="17" width="2" height="2" fill="#dedede" data-fill-palette-color="quaternary"></rect><rect x="47" y="10" width="2" height="2" fill="#dedede" data-fill-palette-color="quaternary"></rect><path d="M63 31H32v-7c0-1.654-1.346-3-3-3h-1.063c1.3-2.023 2.063-4.422 2.063-7 0-1.034-0.134-2.035-0.363-3h5.643l3.511 10.533L48.603 3H59V1H47.397L39.21 16.467 36.721 9h-7.724C27.034 4.307 22.397 1 17 1 9.832 1 4 6.832 4 14c0 2.578 0.764 4.977 2.063 7H4c-1.654 0-3 1.346-3 3v36c0 1.654 1.346 3 3 3h25c1.654 0 3-1.346 3-3v-1h31V31zM32 38.08c3.386 0.488 6 3.401 6 6.92s-2.614 6.432-6 6.92V38.08zM17 3c6.065 0 11 4.935 11 11s-4.935 11-11 11S6 20.065 6 14 10.935 3 17 3zM7.618 61l1-2h15.764l1 2H7.618zM30 60c0 0.552-0.448 1-1 1h-1.382l-2-4H7.382l-2 4H4c-0.552 0-1-0.448-1-1V24c0-0.552 0.448-1 1-1h3.641c0.735 0.764 1.562 1.433 2.463 2H5v8h23v-8h-4.104c0.901-0.567 1.728-1.236 2.463-2H29c0.552 0 1 0.448 1 1V60zM26 27v4H7v-4H26zM61 57H32v-3.059c4.493-0.499 8-4.316 8-8.941s-3.507-8.442-8-8.941V33h29V57z" fill="#dedede" data-fill-palette-color="quaternary"></path><polygon points="57,40 59,40 59,35 54,35 54,37 57,37  " fill="#dedede" data-fill-palette-color="quaternary"></polygon><polygon points="59,50 57,50 57,53 54,53 54,55 59,55  " fill="#dedede" data-fill-palette-color="quaternary"></polygon></g></svg></g></svg></g></svg></g></svg></g><g></g></svg></g><defs></defs></svg><rect width="395.52" height="192.71761001601965" fill="none" stroke="none" visibility="hidden"></rect></g></svg></g></svg>