<svg width="77" height="67" viewBox="0 0 77 67" fill="none" xmlns="http://www.w3.org/2000/svg">
<path d="M59.8962 11.8643C59.4452 12.4959 59.0944 12.8675 58.1591 13.6848C57.9921 13.8211 57.5912 14.1183 57.2404 14.3288C56.8897 14.5517 56.6725 14.7375 56.7393 14.7375C56.8062 14.7375 56.6892 14.8366 56.4554 14.9604C56.0378 15.171 54.7183 16.0626 53.3821 17.0286C52.9979 17.3011 52.4968 17.5983 52.2463 17.6726C51.9957 17.7593 51.6784 17.9699 51.5114 18.1309C51.361 18.3042 51.1773 18.4157 51.0938 18.3909C51.027 18.3538 50.8767 18.4405 50.7764 18.5767C50.6762 18.7129 50.4925 18.8244 50.3756 18.8244C50.2419 18.8244 50.0415 18.9358 49.9246 19.0721C49.791 19.1959 49.5905 19.3198 49.4736 19.3445C49.34 19.3693 48.889 19.6418 48.438 19.9638C47.9871 20.2981 47.5695 20.5582 47.5027 20.5582C47.4359 20.5582 47.0517 20.8183 46.6508 21.1279C46.1164 21.5242 45.9493 21.7347 46.0662 21.8214C46.2667 21.97 45.4983 22.6636 45.1309 22.6636C45.014 22.6636 44.9472 22.7007 44.9806 22.7503C45.0641 22.8865 44.4795 23.2828 44.3459 23.1837C44.279 23.1342 44.2623 23.1589 44.2957 23.2333C44.3291 23.3076 44.1287 23.5676 43.8448 23.7906C43.5775 24.0259 43.3604 24.2488 43.3938 24.2983C43.4105 24.3602 43.3437 24.3974 43.2435 24.3974C43.1098 24.3974 43.1265 24.4593 43.2602 24.5832C43.4439 24.7442 43.4272 24.7565 43.1934 24.6946C42.8426 24.5955 42.8426 24.7565 43.2268 24.9795C43.3771 25.0785 43.4272 25.1281 43.3103 25.0909C43.2101 25.0414 43.0764 25.0909 43.043 25.1652C42.9762 25.2891 42.9428 25.2891 42.9428 25.1652C42.9261 24.9547 42.6422 24.9795 42.5252 25.2148C42.4751 25.3138 42.4918 25.3634 42.5754 25.3262C42.6589 25.2891 42.7758 25.3138 42.8426 25.3882C42.9094 25.4625 43.0263 25.4872 43.1098 25.4501C43.1934 25.4129 43.2101 25.4625 43.16 25.5615C43.0764 25.7102 42.9762 25.7225 42.7424 25.6235C42.5085 25.5368 42.425 25.5492 42.425 25.6606C42.425 25.7721 42.3749 25.7721 42.2413 25.6358C42.1244 25.4996 42.1077 25.5863 42.1912 25.9331C42.2914 26.3789 42.2747 26.4037 41.9406 26.317C41.7402 26.2798 41.5899 26.2922 41.5899 26.3665C41.5899 26.4285 41.5398 26.5894 41.4897 26.7133C41.4396 26.8371 41.5231 26.8 41.6567 26.6266C41.9573 26.2551 42.0075 26.3665 41.7402 26.8C41.6233 26.9734 41.4897 27.0848 41.4062 27.0601C41.3393 27.0229 41.3226 27.1096 41.3728 27.2334C41.4229 27.3573 41.3226 27.6174 41.1723 27.7907C41.0053 27.9641 40.9385 28.1127 41.0053 28.1127C41.0888 28.1127 41.0053 28.2366 40.8216 28.3852C40.6211 28.5462 40.6044 28.6081 40.7547 28.5462C40.9719 28.4471 40.9719 28.4595 40.7714 28.6453C40.5042 28.893 39.7526 28.9301 39.7526 28.6948C39.7526 28.4224 39.1346 27.9517 39.0177 28.1375C38.9675 28.2242 38.9675 28.1499 39.0344 27.9517C39.1012 27.6793 39.0678 27.6297 38.8506 27.6917C38.6001 27.766 38.0823 27.4935 38.0823 27.2954C38.0823 27.2334 38.1658 27.2582 38.2827 27.3449C38.5333 27.5307 38.7504 27.5307 38.7504 27.3573C38.7504 27.2954 38.6836 27.2582 38.6168 27.2954C38.5333 27.3325 38.2493 27.1963 37.9988 26.9981C37.648 26.7257 37.481 26.6638 37.3808 26.7752C37.2973 26.8867 37.2472 26.8495 37.2472 26.6638C37.2472 26.5028 37.0968 26.317 36.9131 26.2303C36.7294 26.1436 36.579 26.0074 36.579 25.9207C36.579 25.8464 36.3285 25.6482 36.0446 25.4996C35.7439 25.3386 35.4767 25.1652 35.4433 25.1157C35.3263 24.9299 35.0925 25.0166 35.176 25.2024C35.343 25.512 33.8398 24.8804 33.6226 24.546C33.4222 24.2612 33.5391 24.1869 33.8732 24.3974C33.9901 24.4717 33.9901 24.4593 33.8732 24.3602C33.5224 24.0754 32.3365 23.5924 32.4869 23.7906C32.5537 23.8896 32.4367 23.8401 32.2029 23.6791C31.9858 23.5305 31.7519 23.4066 31.6851 23.4066C31.635 23.4066 31.184 23.2333 30.6997 23.0227C30.2153 22.8122 29.6808 22.614 29.497 22.5893C29.3133 22.5645 28.9124 22.453 28.6118 22.354C28.2944 22.2425 27.8936 22.1434 27.7265 22.131C27.5428 22.1187 27.3925 22.0815 27.3925 22.0443C27.3925 21.9948 27.1085 21.871 26.7745 21.7471C26.4237 21.6233 25.7723 21.3508 25.3046 21.1279C24.8537 20.905 24.3359 20.6821 24.1856 20.6449C23.6845 20.5087 22.0643 19.7161 21.4296 19.2826C21.1122 19.0721 20.4608 18.5272 19.9764 18.0813C19.5088 17.6355 18.9576 17.1649 18.7404 17.0163C18.54 16.8676 18.373 16.6943 18.373 16.6323C18.373 16.5704 18.2226 16.4094 18.0389 16.2856C17.8552 16.1617 17.7049 15.9388 17.7049 15.7902C17.7049 15.6292 17.6046 15.4434 17.471 15.3691C17.3541 15.2948 17.2038 15.0719 17.1537 14.8861C17.0033 14.4155 16.4187 13.7467 16.1348 13.7467C15.8174 13.7467 15.6671 14.2917 15.8341 14.8366C15.9177 15.0843 15.9678 15.654 15.9177 16.0998C15.8007 17.5736 15.8508 19.1959 16.0346 19.1959C16.1515 19.1959 16.1515 19.7037 16.0179 19.8771C15.9678 19.939 15.9511 20.1991 15.9845 20.4344C16.0179 20.6697 16.0513 20.9793 16.0513 21.1031C16.0513 21.227 16.1682 21.4499 16.3018 21.5985C16.6192 21.9329 16.6025 22.0443 16.2517 22.0443C15.9678 22.0567 15.9678 22.0567 16.2517 22.2177C16.5524 22.3911 16.6693 22.8617 16.3686 22.7255C16.1515 22.6264 16.1515 22.8617 16.3686 23.1713C16.4688 23.2952 16.4856 23.4066 16.402 23.4066C16.2684 23.4066 16.2016 23.741 16.2183 24.2736C16.2183 24.4469 16.235 24.6327 16.2183 24.707C16.1348 26.8 16.0179 28.9177 15.9511 29.3264C15.7172 30.8869 15.5335 32.5959 15.6003 32.6702C15.7339 32.8312 15.7506 34.2431 15.617 34.4784C15.5335 34.627 15.5669 34.7384 15.7172 34.8127C15.8508 34.8747 15.8843 34.9242 15.8007 34.9242C15.7172 34.9242 15.7506 34.9985 15.8508 35.0852C15.9511 35.1843 15.9845 35.2957 15.9177 35.3453C15.7506 35.4691 15.7005 35.7911 15.8675 35.7911C15.9344 35.7911 15.9845 35.9769 15.9845 36.1874C15.9845 36.4103 16.0346 36.6828 16.0847 36.7819C16.2684 37.1286 16.3352 37.7726 16.1849 37.6983C16.1014 37.6612 16.0346 37.6983 16.0346 37.7602C16.0346 37.8345 16.1181 37.8965 16.2183 37.8965C16.3352 37.8965 16.3686 38.0203 16.3018 38.2185C16.2183 38.429 16.2517 38.5033 16.3686 38.4538C16.4521 38.4166 16.6192 38.4166 16.7361 38.4662C16.8697 38.5281 16.8363 38.6024 16.6359 38.7138C16.3686 38.8501 16.3686 38.8748 16.7194 38.9492C17.02 39.0235 17.0367 39.0606 16.853 39.1349C16.7194 39.1968 16.6192 39.395 16.6359 39.5931C16.6526 39.8656 16.7361 39.9399 17.0033 39.9275C17.2873 39.9275 17.3207 39.9523 17.1871 40.0885C17.0367 40.2 17.0534 40.2495 17.1871 40.2495C17.304 40.2495 17.3374 40.2991 17.2873 40.3734C17.2372 40.4477 17.304 40.4601 17.4376 40.4229C17.5879 40.3858 17.7049 40.4105 17.7049 40.4848C17.7049 40.5591 17.5879 40.6211 17.471 40.6211C17.2539 40.6211 17.2539 40.6706 17.4543 41.0421C17.5879 41.265 17.638 41.5004 17.5712 41.5499C17.5044 41.6118 17.5545 41.6118 17.6715 41.5623C17.8552 41.4756 17.9554 41.6366 17.8719 41.9214C17.8552 41.9833 17.9888 42.1072 18.1391 42.1939C18.373 42.3177 18.373 42.3549 18.1892 42.3673C18.0556 42.3673 18.089 42.4168 18.2895 42.4787C18.4732 42.5406 18.54 42.5902 18.4231 42.5902C18.3062 42.6026 18.2561 42.6769 18.3062 42.776C18.3563 42.875 18.4899 42.937 18.5901 42.8998C18.707 42.875 18.7905 42.9741 18.7905 43.1475C18.7905 43.3333 18.707 43.4199 18.5901 43.3828C18.4732 43.3456 18.373 43.3828 18.373 43.4571C18.373 43.5314 18.4231 43.5809 18.5066 43.5809C18.8406 43.5438 19.0411 43.6057 19.0411 43.7791C19.0411 44.002 19.3083 44.0268 19.4252 43.8039C19.4754 43.7296 19.5255 43.7791 19.5255 43.9153C19.5422 44.0639 19.4252 44.2497 19.2916 44.3364C19.0912 44.4602 19.0411 44.4602 19.0411 44.3364C19.0411 44.2373 18.991 44.2002 18.9409 44.2497C18.8908 44.2869 18.8908 44.3859 18.9576 44.4602C19.0411 44.5593 19.1413 44.5593 19.3083 44.4479C19.4921 44.3364 19.5923 44.3364 19.7927 44.4602C19.9263 44.5469 20.0098 44.646 19.9597 44.6955C19.8261 44.8813 20.4942 45.1785 20.7782 45.0547C20.9786 44.968 21.0454 44.9928 21.0454 45.129C21.0454 45.2528 20.9452 45.29 20.7949 45.2528C20.2938 45.1042 20.561 45.4882 21.296 46.0083C21.7135 46.2931 21.9975 46.5532 21.9474 46.6028C21.8806 46.6523 22.0309 46.739 22.2814 46.8009C22.5153 46.8752 22.7157 46.9743 22.7157 47.0362C22.7157 47.0981 22.9161 47.222 23.1667 47.3211C23.6344 47.4944 24.0519 47.7174 24.4695 48.027C24.6031 48.1013 24.7869 48.1756 24.9038 48.1756C25.004 48.1756 25.1877 48.2747 25.3046 48.3861C25.4884 48.5719 25.5552 48.5719 25.789 48.4357C26.0062 48.2994 26.0563 48.2994 26.0563 48.448C26.0563 48.5719 26.24 48.6338 26.5741 48.6462C26.858 48.6462 27.1921 48.7453 27.2923 48.8691C27.4593 49.0177 27.5428 49.0425 27.6263 48.931C27.6931 48.8567 27.6764 48.7081 27.5762 48.6214C27.4259 48.4976 27.4426 48.4357 27.6597 48.3737C27.8101 48.3366 27.9938 48.3366 28.094 48.3737C28.1942 48.4233 28.2443 48.4109 28.1942 48.349C27.8602 47.8164 27.643 47.5564 27.5261 47.5564C27.4593 47.5564 27.3925 47.4821 27.3925 47.383C27.3925 47.2963 27.2923 47.1477 27.1587 47.0734C26.9749 46.9619 26.9081 46.9743 26.8246 47.1353C26.6743 47.4077 26.691 47.4325 26.9749 47.4325C27.1085 47.4325 27.2255 47.5192 27.2255 47.6183C27.2255 47.8784 27.0083 47.8536 26.7244 47.5564C26.5908 47.4201 26.407 47.3087 26.3235 47.3087C26.24 47.3087 26.2233 47.3458 26.2734 47.383C26.3235 47.4325 26.3068 47.5687 26.2066 47.705C26.0563 47.9155 26.073 47.9403 26.3569 47.8784C26.5908 47.8164 26.7745 47.8784 26.9582 48.0765C27.1085 48.2375 27.2255 48.287 27.2255 48.188C27.2255 48.0889 27.2756 48.0394 27.3257 48.0889C27.3758 48.126 27.3424 48.2623 27.2422 48.3861C27.1419 48.51 27.0584 48.5347 27.0584 48.448C27.0584 48.3737 26.9081 48.2994 26.7077 48.2994C26.5072 48.2994 26.4237 48.2499 26.4905 48.1632C26.5574 48.0889 26.4738 48.0394 26.2901 48.0641C25.8725 48.1137 25.2211 47.9403 25.2211 47.7917C25.2211 47.7297 25.1042 47.6802 24.9706 47.6802C24.837 47.6802 24.72 47.6431 24.72 47.5811C24.72 47.5316 24.386 47.3334 23.9684 47.1477C23.5508 46.9495 23.2168 46.739 23.2168 46.6771C23.2168 46.6151 23.0999 46.5656 22.9328 46.5656C22.699 46.5656 22.699 46.5408 22.9662 46.3179C23.2669 46.0702 23.2669 46.0702 23.7346 46.4418C24.1856 46.7761 24.72 46.8381 24.72 46.5408C24.72 46.4789 24.8036 46.4665 24.8871 46.5037C24.9873 46.5532 25.0207 46.6399 24.9706 46.7018C24.9205 46.7638 25.004 46.7761 25.1543 46.7266C25.4049 46.6647 25.4049 46.6894 25.1209 46.9991L24.8203 47.3458L25.1877 47.1972C25.3882 47.1229 25.5552 46.9991 25.5552 46.9371C25.5552 46.8628 25.6721 46.8133 25.8057 46.8133C25.9393 46.8133 26.0563 46.7638 26.0563 46.7018C26.0563 46.6399 25.9059 46.6151 25.7222 46.6523C25.5218 46.6894 25.3882 46.6523 25.3882 46.578C25.3882 46.4913 25.3213 46.4541 25.2378 46.4913C25.1543 46.5284 25.0541 46.4789 25.004 46.3922C24.9539 46.2931 24.9873 46.1817 25.1042 46.1445C25.2211 46.1198 25.1376 46.0826 24.9372 46.0826C24.72 46.0702 24.553 45.9959 24.553 45.9092C24.553 45.8101 24.5029 45.8101 24.4027 45.934C24.3192 46.0331 24.1354 46.0702 23.9684 46.0207C23.7012 45.9464 23.7012 45.9711 23.9016 46.1569C24.1187 46.3551 24.102 46.3675 23.8682 46.2188C23.7179 46.1321 23.5508 45.8968 23.484 45.6863C23.4005 45.3891 23.317 45.3148 23.0832 45.3519C22.8326 45.4015 22.7825 45.3519 22.8159 45.129C22.8326 44.968 22.7825 44.8318 22.699 44.8318C22.6155 44.8318 22.3816 44.6336 22.1812 44.3983C21.914 44.0516 21.7636 43.9772 21.4797 44.0392C21.296 44.0763 21.0454 44.1878 20.9452 44.2869C20.7281 44.485 20.3773 44.5222 20.3773 44.3364C20.3773 44.2621 20.5109 44.2126 20.678 44.2002C20.845 44.2002 20.8784 44.163 20.7615 44.1259C20.6446 44.1011 20.5443 44.0144 20.5443 43.9401C20.5443 43.8534 20.6279 43.8534 20.7615 43.9525C20.9452 44.0639 20.9953 44.0144 21.012 43.7048C21.012 43.4323 20.8784 43.2218 20.5777 43.0113C20.3272 42.8379 20.1435 42.6397 20.1769 42.5778C20.2103 42.5035 20.1268 42.4787 20.0098 42.5035C19.8762 42.553 19.776 42.4663 19.776 42.2806C19.7426 41.9214 19.1747 40.8687 19.0077 40.8687C18.9409 40.8687 18.9242 40.7944 18.9743 40.6954C19.0244 40.5963 18.991 40.4848 18.8908 40.4353C18.7905 40.3981 18.707 40.2495 18.707 40.1133C18.707 39.9771 18.6402 39.8904 18.5567 39.9399C18.4732 39.9771 18.4231 39.8532 18.4398 39.6675C18.4899 39.3083 18.2226 38.4909 18.0055 38.3795C17.922 38.3423 17.8385 38.107 17.8051 37.8593C17.7717 37.5992 17.6715 37.3268 17.5879 37.2401C17.5044 37.1658 17.4543 36.7943 17.471 36.4351C17.4877 36.0883 17.4376 35.754 17.3541 35.7168C17.1203 35.6177 17.1704 35.1719 17.4209 35.1719C17.5712 35.1719 17.5545 35.1347 17.3875 35.0604C17.2038 34.9737 17.2038 34.949 17.3875 34.887C17.5545 34.8375 17.5545 34.8127 17.4209 34.8127C17.1203 34.8004 17.1537 34.2059 17.471 33.9706C17.638 33.8344 17.7216 33.5867 17.6882 33.2028C17.6547 32.8808 17.7049 32.5464 17.7717 32.4597C17.8552 32.373 17.8385 32.2492 17.7383 32.1748C17.6213 32.0882 17.5712 32.1005 17.5879 32.212C17.6046 32.3111 17.5545 32.3854 17.471 32.3854C17.2873 32.3854 17.1871 31.7538 17.3207 31.4194C17.3708 31.2832 17.5044 31.2212 17.638 31.2584C17.7717 31.2955 17.8719 31.2708 17.8719 31.2212C17.8719 31.1593 17.755 31.085 17.6213 31.0355C17.4877 30.9983 17.3708 30.9116 17.3708 30.8249C17.3708 30.7506 17.471 30.7135 17.6046 30.7506C17.755 30.8002 17.8218 30.7135 17.8218 30.4906C17.8218 30.3048 17.8719 30.0695 17.922 29.9704C18.1391 29.5122 18.1558 29.215 17.9721 29.0663C17.7383 28.9053 17.6715 28.4595 17.9053 28.5586C17.9721 28.5957 18.0055 28.2614 17.9721 27.8031C17.9554 27.3573 17.9721 26.9981 18.0222 26.9981C18.2226 26.9981 18.3229 20.5211 18.1224 20.0876C17.9387 19.6541 18.1725 19.7408 19.8428 20.744C20.6947 21.2517 21.5131 21.6728 21.6467 21.6728C21.7135 21.6728 21.9474 21.7843 22.1311 21.9205C22.3315 22.0691 23.2502 22.4654 24.1688 22.8246C25.0875 23.1837 26.1899 23.6172 26.6409 23.8029C27.0751 24.0011 27.5261 24.1497 27.6597 24.1497C27.7767 24.1497 27.927 24.1992 27.9771 24.2736C28.0272 24.3355 28.2109 24.3974 28.378 24.3974C28.545 24.3974 28.8122 24.5089 28.9626 24.6327C29.1296 24.7689 29.497 24.9423 29.781 25.029C30.0816 25.1157 30.3489 25.2272 30.399 25.2643C30.4491 25.3015 30.9001 25.5368 31.4012 25.7845C31.9023 26.0321 32.9712 26.7257 33.773 27.3201C34.558 27.927 35.4433 28.5586 35.7272 28.732C35.9944 28.9053 36.5122 29.3016 36.863 29.6236C37.2973 30.0323 37.5311 30.1686 37.6146 30.0571C37.7315 29.9456 37.7482 29.958 37.7148 30.0943C37.6814 30.2676 38.0155 30.8249 38.2326 30.9612C38.3829 31.0479 39.0511 32.1996 39.168 32.5711C39.2348 32.7445 39.4185 33.1532 39.5855 33.5C40.12 34.5527 40.1367 34.6146 40.1033 34.7137C40.0866 34.7756 40.1534 35.0233 40.2704 35.271C40.3706 35.5187 40.4875 35.9521 40.5376 36.2246C40.571 36.497 40.6879 36.9429 40.7882 37.2153C41.189 38.4042 41.3059 39.3083 41.3393 41.0545C41.3393 42.07 41.2892 43.0113 41.2224 43.1227C41.1389 43.2466 41.1723 43.358 41.3059 43.3952C41.4563 43.4571 41.4563 43.4819 41.3059 43.5438C41.0387 43.6305 41.022 44.0887 41.2725 44.0887C41.356 44.0887 41.3895 44.0268 41.3393 43.9649C41.2892 43.8906 41.3226 43.841 41.4229 43.841C41.5398 43.841 41.5899 43.9277 41.5231 44.0268C41.473 44.1506 41.5398 44.2126 41.7402 44.2126C42.1244 44.2126 42.091 43.6924 41.6901 43.3952C41.356 43.1475 41.3393 43.1599 41.8738 42.9122C42.258 42.7264 42.2914 42.7264 42.2079 42.8874C42.1578 42.9989 42.1912 43.1227 42.2747 43.1723C42.3749 43.2094 42.4083 43.3828 42.3582 43.5438C42.2246 43.9153 42.8092 44.485 42.9762 44.163C43.043 44.0516 43.2435 43.9649 43.4272 43.9649C43.6109 43.9649 43.7613 43.9153 43.7613 43.841C43.7613 43.7791 43.9116 43.6676 44.0953 43.5933C44.3626 43.4819 44.396 43.4943 44.3291 43.6553C44.2623 43.7543 44.2957 43.841 44.396 43.841C44.4795 43.841 44.6131 43.7048 44.6632 43.5314C44.7467 43.3085 44.8803 43.2218 45.1476 43.2342H45.515L45.1476 43.3456C44.9305 43.4076 44.7634 43.519 44.7634 43.5809C44.7634 43.6429 44.9639 43.6181 45.2311 43.519C45.4816 43.4323 45.7823 43.3456 45.8825 43.3456C45.9994 43.3456 46.4003 43.2589 46.7678 43.1475C47.3524 42.9741 47.4192 42.9122 47.2354 42.7388C47.0684 42.5778 47.0684 42.5654 47.2688 42.6893C47.5862 42.8998 47.937 42.8874 47.937 42.6645C47.937 42.5654 48.0873 42.4292 48.2543 42.3549C48.6886 42.1815 48.8222 42.1939 48.722 42.392C48.6051 42.615 49.3567 42.5159 49.6239 42.2806C49.8411 42.0824 49.5905 42.0453 49.3233 42.2434C49.1897 42.3425 49.1062 42.3301 49.0226 42.2187C48.9391 42.1196 48.9558 42.0948 49.0727 42.1567C49.1897 42.2063 49.2732 42.1815 49.2732 42.1196C49.2732 42.0453 49.173 41.9833 49.0727 41.9833C48.9224 41.9833 48.9391 41.9338 49.1062 41.8595C49.2398 41.7976 49.4402 41.7357 49.5237 41.7357C49.6239 41.7357 49.5738 41.7976 49.4402 41.8595C49.1229 42.0081 49.3066 42.0205 49.8411 41.8595C50.1751 41.7728 50.2419 41.7852 50.1751 41.9214C50.1083 42.0453 50.1751 42.07 50.4257 42.0205C50.6261 41.9833 50.7764 41.8471 50.7764 41.7233C50.7764 41.488 51.0604 41.2898 51.2441 41.426C51.2942 41.4632 51.2441 41.5623 51.1105 41.6242C50.9101 41.7357 50.9101 41.748 51.1606 41.6861C51.3276 41.649 51.5114 41.6118 51.5448 41.6118C51.5949 41.6118 51.5782 41.5499 51.5281 41.488C51.478 41.4137 51.5114 41.3641 51.5949 41.3641C51.6951 41.3641 51.7619 41.327 51.7452 41.2774C51.6951 41.0917 51.979 40.7449 52.1294 40.8192C52.2129 40.8564 52.2463 40.9431 52.1795 41.005C52.1294 41.0793 52.2296 41.0669 52.43 40.9678C52.6304 40.8811 52.7808 40.7573 52.7808 40.6954C52.7808 40.6458 52.6806 40.6582 52.5469 40.7449C52.3465 40.8564 52.2964 40.844 52.3298 40.6334C52.3298 40.4972 52.4133 40.4229 52.4801 40.4477C52.5469 40.4848 52.8977 40.2867 53.2652 40.0142C53.8832 39.556 54.3508 39.4445 53.8999 39.8656C53.7161 40.039 53.7328 40.039 53.9834 39.8904C54.1504 39.8037 54.2339 39.6798 54.1838 39.6179C54.1337 39.556 54.1838 39.5065 54.2673 39.5065C54.3675 39.5065 54.4344 39.4693 54.4344 39.4074C54.3842 39.1721 54.4678 39.0978 54.6181 39.2588C54.7517 39.4074 54.7851 39.3826 54.7851 39.1225C54.7851 38.9368 54.9855 38.6643 55.2862 38.4538C55.8374 38.0575 55.971 38.1318 55.4532 38.5405C54.9688 38.9368 55.0524 39.073 55.5534 38.7015C55.804 38.5157 55.9376 38.3052 55.8875 38.1689C55.8374 38.0327 56.0879 37.7355 56.6224 37.302C57.2237 36.8314 57.4576 36.7076 57.4743 36.8686C57.491 37.0667 57.6413 36.9305 57.658 36.6952C57.658 36.6333 57.8083 36.5218 57.9586 36.4475C58.3762 36.2246 58.9775 35.4443 58.7771 35.3577C58.6936 35.3081 58.6268 35.37 58.6268 35.4691C58.6268 35.7292 58.276 35.853 58.109 35.6549C57.9419 35.4443 58.5599 35.1595 58.9441 35.271C59.0944 35.3081 59.1445 35.2833 59.061 35.1967C58.9942 35.11 59.0276 35.048 59.1111 35.048C59.2114 35.048 59.2949 34.9614 59.2949 34.8623C59.2949 34.7632 59.3784 34.6765 59.4786 34.6765C59.5621 34.6765 59.6122 34.627 59.5454 34.565C59.4953 34.5031 59.5287 34.4041 59.6289 34.3669C59.7291 34.3174 59.7626 34.1687 59.6957 34.0325C59.6289 33.8839 59.6623 33.8096 59.7626 33.8591C59.9296 33.9334 60.297 32.9303 60.3471 32.2368C60.3639 32.0262 60.4474 31.8776 60.5309 31.9148C60.6144 31.9519 60.6478 31.7785 60.5977 31.5432C60.5643 31.2955 60.581 31.0726 60.6478 31.0602C60.7146 31.0355 60.7981 30.7382 60.8315 30.3791C60.8649 30.0323 60.9317 29.7723 60.9819 29.7846C61.032 29.8094 61.0821 29.5741 61.0988 29.2521C61.1155 28.9301 61.1656 28.2242 61.2324 27.6793C61.2825 27.1344 61.3326 26.5894 61.3159 26.4656C61.2992 26.1065 61.2992 25.8588 61.3159 24.4469C61.3326 23.6791 61.2825 22.998 61.2157 22.9113C61.1489 22.8246 61.0654 22.453 61.0153 22.0691C60.9819 21.6976 60.8816 21.326 60.7981 21.2394C60.7146 21.165 60.6812 20.9793 60.748 20.8307C60.7981 20.6573 60.7647 20.5582 60.6144 20.5582C60.4975 20.5582 60.4474 20.5211 60.4975 20.4839C60.5476 20.4467 60.4975 20.1248 60.3639 19.778C60.2302 19.3941 60.1634 18.6138 60.1801 17.8336C60.2302 16.5704 59.9296 15.01 59.7626 15.5425C59.7124 15.6787 59.7124 15.3939 59.7626 14.9233C59.796 14.4403 59.8962 14.0068 59.9797 13.9325C60.0632 13.8706 60.13 13.5981 60.13 13.3133C60.13 13.0408 60.2803 12.5702 60.4641 12.273C60.8482 11.6662 60.8983 11.146 60.5977 11.146C60.4808 11.146 60.1634 11.468 59.8962 11.8643ZM56.4387 17.6726C55.4866 19.0845 54.6515 20.261 54.5847 20.2858C54.5179 20.3105 54.3341 20.5334 54.1671 20.7811C54.0168 21.0288 53.7829 21.2889 53.666 21.3384C53.5491 21.4004 53.4823 21.487 53.5324 21.5614C53.5992 21.6233 53.5491 21.6728 53.4489 21.6728C53.332 21.6728 53.2819 21.7595 53.3487 21.8586C53.3988 21.9577 53.3821 22.0443 53.2986 22.0443C53.215 22.0443 53.1148 22.1558 53.0647 22.3044C53.0146 22.453 52.8977 22.5397 52.8142 22.4902C52.7307 22.453 52.5469 22.6264 52.3799 22.8617C52.2296 23.1094 52.1795 23.2704 52.263 23.2333C52.3465 23.1837 52.4801 23.2209 52.5469 23.2952C52.6137 23.3943 52.597 23.4066 52.4801 23.3571C52.2964 23.2704 52.1962 23.4314 52.263 23.6915C52.2797 23.7534 52.2129 23.7658 52.1127 23.7163C52.0124 23.6791 51.9957 23.5676 52.0458 23.4933C52.1127 23.4066 52.096 23.3943 52.0124 23.4438C51.9456 23.4933 51.8955 23.7534 51.9122 24.0011C51.9456 24.3231 51.9122 24.4098 51.7953 24.2859C51.7118 24.1869 51.6784 24.0259 51.7285 23.9144C51.7953 23.741 51.7953 23.741 51.6283 23.902C51.5281 24.0011 51.4947 24.1869 51.5448 24.3231C51.6116 24.4469 51.5782 24.5212 51.4947 24.4841C51.2775 24.385 50.3756 25.7597 50.4257 26.1188C50.4591 26.3046 50.409 26.3789 50.2921 26.3294C50.1918 26.2798 50.0415 26.3665 49.958 26.5399C49.8578 26.7133 49.6239 26.9362 49.4068 27.0477C49.2064 27.1591 49.1062 27.2458 49.1897 27.2458C49.2732 27.2458 49.173 27.3325 48.9725 27.444C48.7721 27.5431 48.6051 27.7164 48.6051 27.8155C48.6051 27.9146 48.4882 28.026 48.3545 28.0632C48.2209 28.1127 48.1541 28.187 48.2042 28.249C48.2543 28.3109 48.2042 28.3604 48.104 28.3604C47.9871 28.3604 47.937 28.4471 48.0038 28.5462C48.0539 28.6577 47.9537 28.7815 47.7699 28.8558C47.5862 28.9301 47.4359 29.0911 47.4359 29.2273C47.4359 29.4874 47.1686 29.6732 47.0684 29.475C47.035 29.4007 46.7678 29.6236 46.4671 29.9704C46.0161 30.4782 45.8324 30.5896 45.4315 30.5896C45.1643 30.5896 44.897 30.6516 44.8302 30.7382C44.7467 30.8249 44.7968 30.8373 44.9472 30.7754C45.0808 30.7259 45.0307 30.8002 44.8469 30.9364C44.2289 31.4194 44.0786 31.5804 44.2623 31.5804C44.3459 31.5804 44.4294 31.6423 44.4294 31.7166C44.4294 31.7785 44.3626 31.8033 44.2623 31.7662C44.1788 31.729 44.0953 31.7538 44.0953 31.8281C44.0953 31.9024 44.0118 31.9272 43.8949 31.8776C43.778 31.8281 43.7613 31.8405 43.8281 31.9395C43.9617 32.1005 43.327 32.5588 42.9261 32.5711C42.7424 32.5835 42.7424 32.6083 42.8927 32.6578C43.0597 32.7074 43.0597 32.7569 42.9094 32.8931C42.6088 33.1656 42.5085 33.1037 42.4584 32.5959C42.4417 32.3482 42.3081 32.0758 42.1578 32.0015C42.0075 31.9024 41.9741 31.8405 42.091 31.8033C42.1912 31.7785 42.1411 31.6547 41.9239 31.4937C41.7402 31.3451 41.5899 31.1841 41.5899 31.1469C41.5899 31.0479 41.9908 31.1346 42.1411 31.2708C42.2246 31.3327 42.2246 31.2089 42.1745 30.9859C42.0075 30.3667 42.2413 29.3512 42.5419 29.3512C42.7257 29.3512 42.7758 29.2521 42.7257 28.9797C42.6756 28.7691 42.709 28.6081 42.7925 28.6081C42.876 28.6081 42.8927 28.5462 42.8426 28.4843C42.7925 28.41 42.8259 28.3604 42.9094 28.3604C43.0096 28.3604 43.0931 28.2737 43.0931 28.1623C43.0931 28.0508 43.5441 27.3821 44.0953 26.6638C44.6465 25.9578 45.0474 25.3138 44.9973 25.2395C44.9305 25.1652 44.9472 25.1405 45.0307 25.1776C45.1142 25.2148 45.4983 24.9052 45.8825 24.4841C46.7511 23.5305 47.0851 23.2085 47.5528 22.837C47.7532 22.676 47.937 22.453 47.9704 22.3292C48.0038 22.2053 48.1374 22.1187 48.2376 22.131C48.3545 22.1558 48.438 22.0939 48.438 21.9948C48.438 21.8957 48.6719 21.6357 48.9391 21.4127C49.2231 21.1774 49.7075 20.7811 50.0081 20.5334C50.3255 20.2858 50.6261 20.1124 50.6762 20.1495C50.7263 20.1991 50.7764 20.1619 50.7764 20.0876C50.7764 19.9142 51.7619 19.1959 51.9957 19.1959C52.096 19.1959 52.1294 19.1588 52.0626 19.1216C52.0124 19.0721 52.3632 18.7996 52.8643 18.49C53.3654 18.1928 53.8498 17.8336 53.95 17.7098C54.0502 17.5736 54.2005 17.4621 54.2673 17.4621C54.4511 17.4621 55.7873 16.4713 55.7873 16.3351C55.7873 16.2732 55.8541 16.236 55.9376 16.2484C56.0211 16.2732 56.3385 16.0874 56.6558 15.8521C57.2571 15.3939 58.0088 14.9852 58.109 15.0471C58.1257 15.0719 57.3908 16.2484 56.4387 17.6726ZM59.1111 20.0009C59.2615 22.193 59.345 22.7379 59.5454 22.8246C59.679 22.8741 59.796 22.9856 59.796 23.0723C59.796 23.1589 59.7291 23.1466 59.6122 23.0351C59.4953 22.8989 59.4786 23.0475 59.5621 23.5305C59.7458 24.5955 59.6456 26.0817 59.2782 27.3697C59.1111 28.0137 58.9274 28.7939 58.9107 29.1035C58.8773 29.4131 58.8105 29.7351 58.7437 29.8094C58.6769 29.8837 58.6769 30.0323 58.727 30.1438C58.7771 30.2553 58.7437 30.3419 58.6268 30.3419C58.5265 30.3419 58.4597 30.441 58.4764 30.5525C58.4931 30.6763 58.4931 30.8126 58.4764 30.8621C58.4764 30.924 58.4597 30.9859 58.4597 31.0231C58.4597 31.0602 58.3428 31.2584 58.1925 31.4689C58.0589 31.6795 57.9753 31.8776 58.0255 31.9148C58.0756 31.9519 58.0088 32.1377 57.8918 32.3111C57.4242 32.9922 56.9398 33.8839 56.9064 34.144C56.9064 34.2926 56.7393 34.4536 56.5389 34.5031C56.2383 34.5774 56.255 34.5898 56.6558 34.6394C56.9565 34.6765 57.0901 34.7632 57.0734 34.9242C57.0567 35.048 56.9565 35.1224 56.8396 35.0852C56.7226 35.048 56.6725 34.9737 56.7226 34.9118C56.8229 34.7756 56.6057 34.7632 56.2049 34.8747C55.9877 34.9366 55.971 34.9737 56.1547 35.0604C56.3218 35.1471 56.3051 35.1719 56.0712 35.1719C55.9042 35.1719 55.804 35.2214 55.8541 35.2833C55.9042 35.3453 55.7205 35.5558 55.4532 35.7787C54.8352 36.2493 54.8352 36.3113 55.4365 36.2246C56.138 36.1379 56.2216 36.3484 55.6203 36.7571C55.1359 37.1039 54.9354 37.3763 55.2862 37.2153C55.3864 37.1782 55.4532 37.2029 55.4532 37.2772C55.4532 37.3516 55.353 37.4011 55.2361 37.3763C55.1359 37.3516 54.8686 37.463 54.6515 37.624C54.4511 37.7726 54.3174 37.8965 54.3675 37.8965C54.4009 37.8965 54.2673 38.0203 54.0669 38.1813C53.5658 38.5776 53.0981 39.0111 53.1816 39.0111C53.3654 39.0111 52.1461 39.8408 51.7452 39.9894C51.4947 40.0885 51.3276 40.2124 51.3777 40.2743C51.4278 40.3238 51.3777 40.3734 51.2942 40.3734C51.194 40.3734 51.1105 40.2743 51.0938 40.1504C51.0938 40.0142 51.027 40.0638 50.9101 40.2743C50.8265 40.4724 50.6428 40.6211 50.4925 40.6211C50.2419 40.6211 49.2732 41.2279 49.2732 41.3889C49.2732 41.4508 49.4068 41.488 49.5738 41.5004C49.8077 41.5004 49.8077 41.5251 49.5237 41.6118C49.056 41.7604 48.7721 41.7604 48.7721 41.5994C48.7721 41.5375 48.8556 41.5127 48.9391 41.5499C49.0393 41.587 49.1062 41.5375 49.1062 41.4384C49.1062 41.327 49.0059 41.2527 48.9057 41.265C48.7888 41.2898 48.7053 41.2279 48.7387 41.1412C48.7554 41.0421 48.7053 41.005 48.6218 41.0545C48.5216 41.0917 48.4882 41.2031 48.555 41.3022C48.6051 41.426 48.5383 41.488 48.3712 41.488C48.2209 41.488 48.0205 41.6118 47.937 41.7604L47.7866 42.0453V41.7604L47.7699 41.4756L47.4025 41.7357C47.202 41.8719 46.9014 41.9833 46.7344 41.9833C46.5172 41.9833 46.4504 42.0329 46.5339 42.132C46.6341 42.2558 46.6007 42.2558 46.417 42.132C46.1331 41.9338 45.799 41.9338 46.0662 42.132C46.3502 42.3425 46.3168 42.4416 45.9326 42.5159C45.7489 42.553 45.632 42.5283 45.6988 42.4663C45.8324 42.3053 44.4461 42.3673 44.2623 42.5406C44.1454 42.6397 44.1788 42.6893 44.3459 42.6893C44.4795 42.6893 44.5463 42.6397 44.4962 42.5778C44.4461 42.5283 44.4795 42.4787 44.563 42.4787C44.6632 42.4787 44.7133 42.615 44.6966 42.776C44.6966 42.9617 44.6131 43.036 44.5129 42.9741C44.4127 42.9122 44.1955 42.9493 44.0285 43.0484C43.8448 43.1475 43.6109 43.2218 43.5274 43.2218C43.4105 43.2218 43.4105 43.1846 43.5274 43.1227C43.6443 43.0732 43.778 42.8379 43.8281 42.6026C43.8782 42.3673 44.0118 41.971 44.112 41.7357C44.3626 41.1784 44.4628 36.2865 44.2289 36.2865C44.1287 36.2865 44.1454 36.2122 44.2623 36.1007C44.4294 35.9521 44.4127 35.9026 44.1955 35.8406C43.945 35.7663 43.8281 35.2957 44.0285 35.1347C44.0786 35.0976 44.3124 35.11 44.5296 35.1719C44.8636 35.271 44.9305 35.2462 44.9305 35.048C44.9305 34.9118 44.9973 34.8004 45.0808 34.8004C45.1643 34.8004 45.2979 34.6889 45.348 34.5403C45.4148 34.4041 45.4983 34.3174 45.5652 34.3545C45.6988 34.466 46.1331 33.9458 46.0161 33.8096C45.966 33.7353 46.0161 33.6858 46.1498 33.6858C46.2834 33.6858 46.5172 33.5743 46.6842 33.4381C46.8513 33.3018 46.9348 33.1904 46.868 33.1904C46.7344 33.1904 47.8033 32.3854 48.0372 32.3111C48.2543 32.2368 49.1897 31.3203 49.3233 31.0355C49.4235 30.8621 49.3734 30.8249 49.1897 30.8869C49.056 30.924 48.9391 30.9364 48.9391 30.9116C48.9391 30.8745 48.889 30.763 48.8389 30.6516C48.7387 30.4782 48.7888 30.4782 49.173 30.602C49.7409 30.8002 50.1083 30.5649 50.7263 29.6113C50.9769 29.2273 51.2775 28.8434 51.3944 28.7567C51.5114 28.67 51.5615 28.5214 51.5114 28.4224C51.4445 28.3233 51.4947 28.2366 51.6116 28.2366C51.7118 28.2366 51.7619 28.187 51.7118 28.1251C51.6617 28.0632 51.7285 27.9765 51.8788 27.9394C52.0124 27.9022 52.0793 27.8155 52.0291 27.7412C51.979 27.6669 52.0793 27.4687 52.2463 27.3077C52.43 27.1344 52.6806 26.7133 52.7975 26.3789C52.9311 25.9826 53.0981 25.7597 53.2652 25.7473C53.4489 25.7473 53.4656 25.7225 53.332 25.673C53.0814 25.6111 53.0313 25.2643 53.2652 25.2643C53.3487 25.2643 53.4489 25.1405 53.4823 24.9795C53.5157 24.8309 53.6159 24.7194 53.6994 24.7318C53.7996 24.7442 53.8832 24.5708 53.8999 24.3602C53.95 23.7658 54.1003 23.4066 54.3007 23.4066C54.4009 23.4066 54.4009 23.4933 54.284 23.6543C54.1671 23.8153 54.1671 23.902 54.2673 23.902C54.3675 23.902 54.4845 23.7039 54.5513 23.4686C54.6014 23.2333 54.7183 23.0351 54.7851 23.0351C54.8519 23.0351 54.9187 22.9608 54.902 22.8741C54.8853 22.292 54.9688 22.0196 55.186 22.0815C55.353 22.131 55.4532 22.0072 55.52 21.6604C55.5701 21.4004 55.7038 21.1774 55.7873 21.1774C55.8875 21.1774 55.9543 21.0288 55.9543 20.8554C55.9543 20.6201 56.0211 20.5458 56.2049 20.6077C56.4053 20.6573 56.4387 20.6077 56.3552 20.3353C56.2884 20.1495 56.3051 20.0381 56.3719 20.0876C56.5723 20.2238 56.8897 19.8399 57.1235 19.2083C57.2237 18.9111 57.491 18.5519 57.7248 18.3909C58.109 18.1309 58.3094 17.6107 57.9586 17.7717C57.6413 17.9079 57.7916 17.6479 58.109 17.4621C58.2927 17.3754 58.4096 17.2516 58.3595 17.1896C58.3094 17.1401 58.3595 17.0906 58.443 17.0906C58.5432 17.0906 58.6268 16.9915 58.6435 16.8676C58.6435 16.7314 58.6936 16.7562 58.7938 16.9667C58.8773 17.1401 59.0109 18.5024 59.1111 20.0009Z" fill="#01E14D"/>
<path d="M32.0693 33.6238C32.0693 33.9334 32.4368 34.4164 32.7207 34.4659C32.9546 34.5155 32.9379 34.5279 32.704 34.5402C32.37 34.5526 32.3199 34.7136 32.5537 35.0232C32.6372 35.1471 32.7542 35.4938 32.821 35.7911C32.8711 36.1007 33.0715 36.5713 33.2385 36.8314C33.4223 37.1038 33.5058 37.3763 33.4557 37.4382C33.4056 37.5125 33.439 37.5249 33.5392 37.4754C33.8565 37.3268 33.9401 37.6487 33.6728 37.9584C33.5225 38.1317 33.4724 38.268 33.5726 38.268C33.6561 38.268 33.7396 38.206 33.7396 38.1317C33.7396 38.0698 33.8231 38.0451 33.9233 38.0946C34.057 38.1441 34.057 38.206 33.9233 38.3051C33.6895 38.4785 33.6895 38.8872 33.9066 38.8872C34.0069 38.8872 34.0737 38.9491 34.0737 39.0234C34.0737 39.0977 33.9568 39.1349 33.8398 39.0977C33.6728 39.0482 33.6227 39.0853 33.6895 39.2092C33.7396 39.2959 33.8398 39.3826 33.9233 39.3826C34.0069 39.3826 34.057 39.4445 34.0403 39.5188C34.0069 39.5931 34.0904 39.6922 34.224 39.7293C34.3743 39.7665 34.4077 39.7293 34.3242 39.6179C34.2574 39.5188 34.3242 39.5312 34.4912 39.655C34.7418 39.8284 34.7585 39.9027 34.5915 40.0513C34.4244 40.2 34.4578 40.2247 34.7752 40.1628C35.0758 40.1133 35.1092 40.1256 34.9088 40.2371C34.7084 40.3362 34.7084 40.3981 34.8754 40.5219C34.9756 40.5963 35.0758 40.7696 35.0758 40.8935C35.0758 41.0173 35.2095 41.1164 35.3765 41.1288C35.5268 41.1288 35.4099 41.1907 35.126 41.2526C34.8086 41.3269 34.5748 41.4508 34.5748 41.5622C34.5748 41.8223 34.9756 42.1072 35.3431 42.1072C35.6103 42.1072 35.6103 42.0948 35.3097 41.909C35.009 41.7356 35.009 41.7232 35.3765 41.8595C35.7273 41.9833 35.8442 42.3672 35.7607 43.2218C35.7607 43.3456 35.7774 43.358 35.8442 43.2465C35.8943 43.1722 36.0446 43.0979 36.1782 43.0979C36.3286 43.0979 36.3787 43.036 36.3286 42.9741C36.2784 42.8998 36.3119 42.8502 36.4288 42.8502C36.5624 42.8502 36.5624 42.8007 36.4121 42.6645C36.2951 42.5654 36.2617 42.4787 36.3119 42.4787C36.3787 42.4787 36.3286 42.3549 36.2116 42.1939C36.0947 42.0452 36.0279 41.8719 36.0446 41.8223C36.0613 41.7604 35.9945 41.7604 35.8943 41.8099C35.744 41.8719 35.7273 41.8347 35.7941 41.6861C35.8609 41.5746 35.7774 41.2898 35.627 41.0792C35.4767 40.8563 35.3264 40.5963 35.3097 40.4972C35.1092 39.6798 34.842 39.0234 34.7251 39.073C34.6583 39.1101 34.5414 39.073 34.4745 38.9987C34.4077 38.912 34.4244 38.8872 34.5247 38.9243C34.6249 38.9739 34.7418 38.9243 34.8086 38.8253C34.8587 38.7262 34.8086 38.6147 34.7084 38.5652C34.5915 38.5157 34.5915 38.4537 34.7084 38.4042C34.8086 38.367 34.842 38.1813 34.7919 37.9955C34.7418 37.8097 34.6416 37.6859 34.5581 37.7107C34.4912 37.7478 34.4578 37.6611 34.4912 37.5249C34.5247 37.3763 34.4411 37.0791 34.2908 36.8561C34.0904 36.5465 33.9401 36.4475 33.6728 36.4846C33.4557 36.5218 33.4223 36.5094 33.5726 36.4475C34.0403 36.2988 34.224 36.014 34.0069 35.7292C33.9066 35.5929 33.7563 35.4443 33.6728 35.4072C33.5893 35.3576 33.5726 35.2709 33.6394 35.1966C33.6895 35.1223 33.6728 35.0356 33.5726 34.9861C33.4891 34.9489 33.4056 34.9737 33.4056 35.0604C33.4056 35.1471 33.3555 35.1719 33.3053 35.1347C33.2385 35.0852 33.2719 34.9737 33.3889 34.8746C33.5392 34.7384 33.5225 34.6889 33.322 34.6393C33.1884 34.5898 33.1216 34.4783 33.1717 34.3669C33.2552 34.2306 33.2051 34.1935 33.0047 34.2554C32.8377 34.3049 32.7374 34.2678 32.7207 34.1316C32.6873 33.8219 32.6539 33.76 32.5203 33.5866C32.3366 33.3761 32.0693 33.4009 32.0693 33.6238Z" fill="#01E14D"/>
<path d="M42.141 44.0382C42.2579 44.1992 41.9739 44.9423 41.7234 45.1404C41.6399 45.2024 41.6566 45.1033 41.7401 44.9175C41.9907 44.4469 41.9739 44.3354 41.6566 44.3354C41.5063 44.3354 41.4562 44.3974 41.523 44.4841C41.6065 44.5831 41.5564 44.5955 41.3726 44.546C41.2056 44.5088 41.0887 44.5212 41.0887 44.5831C41.0887 44.6574 41.1722 44.707 41.2557 44.707C41.3559 44.707 41.4228 44.8308 41.4061 44.9794C41.4061 45.2519 41.3893 45.2519 41.2724 45.0166C41.1722 44.8432 41.1388 44.9175 41.1388 45.3014C41.1388 45.6482 41.1889 45.7844 41.2724 45.673C41.3726 45.5615 41.4228 45.5863 41.4228 45.7844C41.4228 45.933 41.2891 46.0693 41.1388 46.1064C40.8883 46.156 40.905 46.1683 41.1889 46.1807C41.4228 46.1931 41.523 46.2798 41.523 46.5027C41.523 46.7009 41.4395 46.7999 41.3225 46.7628C41.0052 46.6761 40.9217 47.1715 41.2223 47.3077C41.4729 47.4068 41.4729 47.4192 41.1889 47.4316C40.9551 47.4316 40.9217 47.4687 41.0553 47.5926C41.2724 47.7783 41.1221 47.9765 40.7212 48.0879C40.5542 48.1251 40.454 48.2613 40.5041 48.3852C40.5208 48.509 40.5709 48.6576 40.5876 48.7319C40.6878 49.0539 40.5542 49.5121 40.3204 49.7351C40.1867 49.8589 40.1199 49.8961 40.1867 49.797C40.2703 49.6731 40.2369 49.6484 40.1032 49.7103C39.9529 49.7846 39.9529 49.8589 40.1533 50.0199C40.454 50.2676 40.3538 50.4286 39.9529 50.3171C39.7692 50.2552 39.7191 50.2924 39.8026 50.441C39.8527 50.5401 39.8193 50.6639 39.7024 50.7011C39.5854 50.7258 39.6356 50.763 39.8026 50.763C39.9529 50.7754 40.0865 50.8744 40.0865 50.9859C40.0865 51.1841 40.0531 51.1841 39.9028 51.0231C39.7859 50.8868 39.7525 50.9364 39.7692 51.2707C39.8193 52.2863 39.7859 52.373 39.218 52.4968C38.9173 52.5587 38.767 52.6207 38.8839 52.6207C38.9841 52.633 39.0844 52.7321 39.1011 52.8436C39.1011 52.9922 39.1345 53.0046 39.2013 52.9055C39.2681 52.7816 39.3349 52.7816 39.5186 52.8931C39.7191 53.017 39.7191 53.0665 39.552 53.1408C39.385 53.2275 39.385 53.2523 39.552 53.2523C39.669 53.2523 39.8026 53.1656 39.8527 53.0665C39.9195 52.9674 40.0197 52.8807 40.1199 52.8807C40.2034 52.8807 40.2202 52.9303 40.17 53.0046C40.0197 53.1903 40.2034 53.1532 40.4874 52.9303C40.7713 52.7321 40.8716 51.9519 40.5876 52.0757C40.5041 52.1129 40.5542 51.8528 40.6878 51.506C40.8382 51.1469 40.905 50.6887 40.8549 50.4781C40.788 50.2057 40.8048 50.1438 40.9217 50.28C41.072 50.441 41.0887 50.441 41.072 50.28C41.072 50.1809 41.0052 49.8341 40.9384 49.5121C40.8215 49.0044 40.8382 48.9425 41.1054 48.9796C41.3058 49.0168 41.3726 48.9672 41.3058 48.8434C41.2557 48.7567 41.1388 48.7072 41.0386 48.7567C40.9384 48.7938 40.9217 48.7691 40.9885 48.6948C41.0553 48.6081 41.2724 48.5462 41.4562 48.5462C41.8069 48.5462 41.8069 48.5462 41.4896 48.2737C41.2557 48.0879 41.239 48.026 41.4228 48.0755C41.6065 48.1251 41.69 48.0384 41.7067 47.7659C41.7234 47.5554 41.8403 47.3449 41.9405 47.2953C42.0575 47.2458 42.1744 46.9981 42.2078 46.738C42.2412 46.4903 42.4249 46.0321 42.6087 45.7349C42.7924 45.4377 42.8926 45.128 42.8258 45.0537C42.759 44.967 42.7757 44.9547 42.8926 45.0042C43.0262 45.0537 43.093 45.0042 43.093 44.868C43.093 44.7441 43.1431 44.5088 43.1933 44.3354C43.2768 44.063 43.2601 44.0506 43.093 44.2487C42.9093 44.4717 42.8759 44.4717 42.4583 44.1868C42.2245 44.0382 42.0909 43.9639 42.141 44.0382Z" fill="#01E14D"/>
<path d="M27.9605 47.4944C27.8769 47.6307 27.9103 47.7421 28.0273 47.7793C28.1442 47.804 28.1943 47.8784 28.1442 47.9403C28.0774 48.0022 28.1609 48.0146 28.3279 47.965C28.5451 47.9031 28.5785 47.9403 28.4782 48.1632C28.3613 48.4357 28.378 48.4357 28.8791 48.2375C29.4804 48.0146 29.5305 48.0765 29.0628 48.448C28.8958 48.5967 28.7789 48.7577 28.829 48.8196C28.8791 48.8815 28.7288 48.9063 28.5116 48.8691C27.9772 48.7948 27.8268 48.9187 28.1943 49.1168C28.4114 49.2283 28.5116 49.2283 28.5952 49.1292C28.6787 49.0177 28.7622 49.0177 28.9292 49.1416C29.0795 49.253 29.0795 49.2902 28.8958 49.2902C28.7622 49.3026 28.8958 49.3769 29.1965 49.476C29.4971 49.575 29.7142 49.7113 29.6641 49.7608C29.614 49.8227 29.7811 49.8723 30.0316 49.8846C30.2821 49.8846 30.5995 49.9094 30.7164 49.9342C30.8333 49.9589 31.0171 49.8723 31.1173 49.7484C31.2843 49.5626 31.2676 49.4883 31.0171 49.3645C30.8333 49.253 30.7665 49.1168 30.8333 48.9806C30.9169 48.832 30.9837 48.8196 31.0672 48.9187C31.2342 49.1292 32.1028 49.1911 32.0192 49.0053C31.9858 48.9187 31.8355 48.8691 31.6685 48.8939C31.5182 48.9187 31.4012 48.8691 31.4012 48.7948C31.4012 48.7329 31.2843 48.671 31.1507 48.671C30.9837 48.671 30.9503 48.5967 31.0171 48.448C31.1173 48.2623 31.1006 48.2623 30.8333 48.4109C30.5661 48.5719 30.4993 48.5595 30.1652 48.2375C29.9481 48.0394 29.6975 47.9279 29.5973 47.9774C29.4804 48.027 29.3969 48.0146 29.3969 47.9527C29.3969 47.8907 29.1965 47.8412 28.9459 47.8536C28.6787 47.866 28.4782 47.804 28.4782 47.7174C28.4782 47.6307 28.3947 47.5068 28.2778 47.4201C28.1108 47.2963 28.044 47.3211 27.9605 47.4944Z" fill="#01E14D"/>
<path d="M36.746 47.4325C36.9465 47.5192 36.9465 47.5811 36.7794 47.705C36.6792 47.7793 36.579 47.9403 36.5957 48.0393C36.5957 48.2003 36.6291 48.2003 36.7126 48.027C36.7961 47.866 36.8964 47.8412 37.0801 47.9279C37.2137 47.9898 37.2471 48.0517 37.1302 48.0517C37.0133 48.0517 36.9632 48.2623 36.9632 48.609C36.9799 48.9186 36.9465 49.1663 36.8797 49.1663C36.8128 49.1663 36.7961 49.253 36.8463 49.3521C36.9131 49.4512 37.0133 49.5007 37.0968 49.4636C37.3807 49.3397 37.4476 49.7732 37.1803 49.9837C36.9966 50.1075 36.9632 50.2314 37.0467 50.3305C37.1302 50.4048 37.1803 50.5658 37.1636 50.6772C37.1302 50.8135 37.197 50.863 37.3473 50.8135C37.5144 50.7763 37.5812 50.8382 37.5812 51.0364C37.5812 51.2345 37.5311 51.2841 37.4476 51.1726C37.3473 51.0612 37.2638 51.0983 37.1302 51.3088C36.8964 51.668 37.1135 51.9528 37.4977 51.8414C37.7315 51.7795 37.7482 51.7299 37.5812 51.5813C37.4643 51.4822 37.4476 51.3955 37.5478 51.3955C37.7482 51.3955 38.0322 51.6432 38.1157 51.8785C38.1992 52.151 36.9131 52.151 36.4287 51.8661C36.2115 51.7423 36.0946 51.6432 36.1614 51.6432C36.3786 51.6432 35.8608 51.2469 35.4933 51.1478C35.3096 51.0983 35.0256 51.0983 34.8753 51.1726C34.6749 51.2469 34.5747 51.2345 34.5747 51.1478C34.5747 51.0735 34.4744 51.0488 34.3742 51.0983C34.2406 51.1602 34.2406 51.1107 34.4076 50.9497C34.5413 50.8258 34.5914 50.7515 34.5079 50.8011C34.4243 50.8506 34.2573 50.8011 34.1237 50.702C33.9901 50.6029 33.7896 50.5658 33.6894 50.6153C33.5892 50.6648 33.5558 50.6153 33.6226 50.4915C33.6727 50.3676 33.656 50.2809 33.5725 50.2809C33.4723 50.2809 33.4222 50.2438 33.4222 50.1819C33.5057 49.8227 33.3888 49.7608 33.038 49.9837C32.8376 50.1075 32.7374 50.1447 32.8042 50.058C32.9044 49.9342 32.8209 49.9218 32.4534 49.9837C31.8688 50.0828 31.5514 50.2809 31.969 50.2809C32.136 50.2809 32.4868 50.4543 32.7708 50.6648C33.0881 50.9002 33.3888 51.0116 33.5558 50.9621C33.6894 50.9249 33.7562 50.9249 33.6894 50.9745C33.6226 51.024 33.8564 51.185 34.1905 51.346C34.6415 51.5441 34.8586 51.5813 34.9421 51.4822C35.0423 51.3708 35.0758 51.3831 35.0758 51.4946C35.0758 51.5813 35.1593 51.6185 35.2428 51.5813C35.343 51.5441 35.4098 51.6185 35.4098 51.7547C35.4098 51.9033 35.51 52.0148 35.6436 52.0148C35.7773 52.0148 35.9777 52.2872 36.128 52.6587L36.3953 53.3151L36.3452 52.6587C36.3285 52.312 36.3619 52.0148 36.4454 52.0148C36.5122 52.0148 36.579 52.1386 36.579 52.2872C36.579 52.4977 36.6291 52.5225 36.7293 52.3987C36.9131 52.1881 37.2638 52.3368 37.1302 52.5721C37.0801 52.6711 37.1302 52.7578 37.2471 52.7578C37.3473 52.7578 37.4141 52.634 37.3807 52.473C37.3473 52.2501 37.4141 52.2005 37.7482 52.1881C38.5165 52.1758 38.5499 52.151 38.4998 51.668C38.4831 51.4203 38.5666 51.0983 38.6836 50.9745C38.8005 50.8382 38.8506 50.6525 38.7671 50.541C38.7003 50.4295 38.6669 50.219 38.6669 50.0704C38.7003 49.7979 38.3328 49.5874 38.1658 49.7732C38.1157 49.8351 38.1992 49.9094 38.3328 49.9589C38.7337 50.0704 38.6168 50.2809 38.1658 50.2809C37.9152 50.2809 37.7482 50.219 37.7816 50.1199C37.815 49.9837 37.648 49.0796 37.481 48.51C37.4309 48.3613 37.364 48.0889 37.3306 47.8907C37.2471 47.4325 37.1135 47.3087 36.7794 47.3087C36.5289 47.3087 36.5289 47.3334 36.746 47.4325Z" fill="#01E14D"/>
</svg>
