<svg width="25" height="25" viewBox="0 0 25 25" xmlns="http://www.w3.org/2000/svg"><title>comments</title><path d="M1.548 8.903c0-4.061 3.68-7.355 8.517-7.355 3.85 0 7.741 3.294 7.741 7.355 0 4.062-3.038 7.355-7.741 7.355-.692 0-2.134-.079-2.778-.213l-2.642 1.761v-2.743c-1.888-1.532-3.097-3.579-3.097-6.16zm5.913 8.7c.601.097 1.97.203 2.604.203 5.558 0 9.29-4.136 9.29-9 0-4.863-4.663-8.806-9.29-8.806C4.499 0 0 3.943 0 8.806c0 2.819 1.074 5.21 3.097 6.933v4.39l4.364-2.527zM20.864 7.074c.014.222.04.442.04.667 0 .492-.049.975-.118 1.45 1.042 1.22 1.666 2.724 1.666 4.356 0 2.582-1.543 4.848-3.871 6.16v2.744l-2.643-1.762a9.805 9.805 0 0 1-2.003.213c-2.005 0-3.07-.602-4.525-1.603-.422.034-.848.055-1.281.055-.308 0-.61-.022-.914-.04 1.844 1.802 3.74 2.943 6.72 2.943.635 0 1.253-.057 1.855-.156l4.339 2.672v-4.39C22.483 18.77 24 16.27 24 13.452c0-2.512-1.209-4.773-3.136-6.377zm-6.541 2.99a1.16 1.16 0 1 0 0-2.322 1.16 1.16 0 0 0 0 2.322zm-9.29 0a1.16 1.16 0 1 0 0-2.322 1.16 1.16 0 0 0 0 2.322zm4.644 0a1.16 1.16 0 1 0 .002-2.322 1.16 1.16 0 0 0-.002 2.322z" fill="#000" fill-rule="nonzero"/></svg>